<svg id="Component_1_1" data-name="Component 1 – 1" xmlns="http://www.w3.org/2000/svg" xmlns:xlink="http://www.w3.org/1999/xlink" width="1133.931" height="450.358" viewBox="0 0 1133.931 450.358">
  <defs>
    <clipPath id="clip-path">
      <path id="Path_117" data-name="Path 117" d="M0,0H182.4V13.171H0Z" transform="translate(0 91.484) rotate(-30.103)" fill="none"/>
    </clipPath>
    <radialGradient id="radial-gradient" cx="0.5" cy="0.5" r="0.978" gradientTransform="matrix(-0.51, 0.502, -0.034, -0.1, 6.661, 169.461)" gradientUnits="objectBoundingBox">
      <stop offset="0" stop-color="#666"/>
      <stop offset="0.254" stop-color="#838383" stop-opacity="0.788"/>
      <stop offset="0.778" stop-color="#cfcfcf" stop-opacity="0.247"/>
      <stop offset="1" stop-color="#f2f2f2" stop-opacity="0"/>
    </radialGradient>
    <clipPath id="clip-path-2">
      <path id="Path_118" data-name="Path 118" d="M0,0H182.4V13.17H0Z" transform="translate(0 91.477) rotate(-30.1)" fill="none"/>
    </clipPath>
    <radialGradient id="radial-gradient-2" cx="0.5" cy="0.5" r="0.978" gradientTransform="matrix(-0.51, 0.502, -0.034, -0.1, 4.547, 164.531)" xlink:href="#radial-gradient"/>
    <clipPath id="clip-path-3">
      <path id="Path_119" data-name="Path 119" d="M0,0H182.4V13.17H0Z" transform="matrix(0.865, -0.502, 0.502, 0.865, 0, 91.491)" fill="none"/>
    </clipPath>
    <radialGradient id="radial-gradient-3" cx="0.5" cy="0.5" r="0.978" gradientTransform="matrix(-0.51, 0.502, -0.034, -0.1, 2.367, 159.449)" xlink:href="#radial-gradient"/>
    <radialGradient id="radial-gradient-4" cx="0.5" cy="0.5" r="0.978" gradientTransform="matrix(-0.51, 0.502, -0.034, -0.1, 0.112, 154.193)" xlink:href="#radial-gradient"/>
  </defs>
  <path id="Path_1" data-name="Path 1" d="M245.982,593.147h0l46.381,26.845h0l-.077-103.354-46.3-26.85h0Z" transform="translate(-217.917 -208.856)" fill="#7a7a7a"/>
  <path id="Path_135" data-name="Path 135" d="M245.982,593.147h0l46.381,26.845h0l-.077-103.354-46.3-26.85h0Z" transform="translate(785.083 -208.856)" fill="#7a7a7a"/>
  <path id="Path_2" data-name="Path 2" d="M310.194,619.717v0l46.614-26.844h0V489.516h0l-46.614,26.852Z" transform="translate(-235.888 -209.057)" fill="#8b8b8b"/>
  <path id="Path_133" data-name="Path 133" d="M310.194,619.717v0l46.614-26.844h0V489.516h0l-46.614,26.852Z" transform="translate(767.112 -209.057)" fill="#8b8b8b"/>
  <path id="Path_3" data-name="Path 3" d="M245.557,479.207,292.1,506.049l46.45-26.845-46.38-26.843Z" transform="translate(-217.798 -198.382)" fill="#bbb"/>
  <path id="Path_134" data-name="Path 134" d="M245.557,479.207,292.1,506.049l46.45-26.845-46.38-26.843Z" transform="translate(785.202 -198.382)" fill="#bbb"/>
  <g id="Group_2" data-name="Group 2" transform="translate(0 347.477)" opacity="0.8" style="mix-blend-mode: multiply;isolation: isolate">
    <g id="Group_1" data-name="Group 1" transform="translate(0 0)" clip-path="url(#clip-path)">
      <path id="Path_4" data-name="Path 4" d="M205.78,692.377c3.119,5.377,43.347-12.12,89.853-39.088s81.677-53.184,78.559-58.563-43.347,12.12-89.853,39.086S202.662,687,205.78,692.377Z" transform="translate(-206.612 -585.431)" fill="url(#radial-gradient)" style="mix-blend-mode: multiply;isolation: isolate"/>
    </g>
  </g>
  <path id="Path_25" data-name="Path 25" d="M408.2,531.179h0l46.38,26.844h0l-.077-262.8-46.3-26.85h0Z" transform="translate(-263.318 -146.889)" fill="#991f1f"/>
  <path id="Path_122" data-name="Path 122" d="M408.2,531.179h0l46.38,26.844h0l-.077-262.8-46.3-26.85h0Z" transform="translate(243.009 -146.889)" fill="#991f1f"/>
  <path id="Path_26" data-name="Path 26" d="M472.415,557.749v0l46.614-26.844h0V268.1h0l-46.614,26.851Z" transform="translate(-280.994 -146.642)" fill="#d83030"/>
  <path id="Path_121" data-name="Path 121" d="M472.415,557.749v0l46.614-26.844h0V268.1h0l-46.614,26.851Z" transform="translate(225.039 -146.813)" fill="#d83030"/>
  <path id="Path_27" data-name="Path 27" d="M407.778,257.792l46.544,26.842,46.451-26.844-46.38-26.843Z" transform="translate(-263.199 -136.414)" fill="#fc6363"/>
  <path id="Path_123" data-name="Path 123" d="M407.778,257.792l46.544,26.842,46.451-26.844-46.38-26.843Z" transform="translate(243.129 -136.414)" fill="#fc6363"/>
  <g id="Group_7" data-name="Group 7" transform="translate(116.309 347.48)" opacity="0.8" style="mix-blend-mode: multiply;isolation: isolate">
    <g id="Group_6" data-name="Group 6" transform="translate(0 0)" clip-path="url(#clip-path-2)">
      <path id="Path_28" data-name="Path 28" d="M367.294,692.377c3.119,5.377,43.347-12.12,89.852-39.088s81.677-53.184,78.56-58.563-43.348,12.12-89.853,39.086S364.175,687,367.294,692.377Z" transform="translate(-368.124 -585.434)" fill="url(#radial-gradient-2)" style="mix-blend-mode: multiply;isolation: isolate"/>
    </g>
  </g>
  <path id="Path_29" data-name="Path 29" d="M574.361,494.441h0l46.381,26.845h0l-.076-357.333-46.3-26.85h0Z" transform="translate(-309.821 -110.15)" fill="#cc7825"/>
  <path id="Path_115" data-name="Path 115" d="M574.361,494.441h0l46.381,26.845h0l-.076-357.333-46.3-26.85h0Z" transform="translate(-59.936 -110.15)" fill="#cc7825"/>
  <path id="Path_125" data-name="Path 125" d="M574.361,494.441h0l46.381,26.845h0l-.076-357.333-46.3-26.85h0Z" transform="translate(205.406 -110.15)" fill="#cc7825"/>
  <path id="Path_30" data-name="Path 30" d="M638.574,521.011v0l46.613-26.844h0V136.83h0l-46.613,26.851Z" transform="translate(-327.792 -110.371)" fill="#fcb042"/>
  <path id="Path_114" data-name="Path 114" d="M638.574,521.011v0l46.613-26.844h0V136.83h0l-46.613,26.851Z" transform="translate(-77.907 -110.074)" fill="#fcb042"/>
  <path id="Path_124" data-name="Path 124" d="M638.574,521.011v0l46.613-26.844h0V136.83h0l-46.613,26.851Z" transform="translate(187.434 -110.074)" fill="#fcb042"/>
  <path id="Path_31" data-name="Path 31" d="M573.938,126.522l46.543,26.842,46.451-26.844L620.55,99.676Z" transform="translate(-309.702 -99.676)" fill="#f7d857"/>
  <path id="Path_116" data-name="Path 116" d="M573.938,126.522l46.543,26.842,46.451-26.844L620.55,99.676Z" transform="translate(-59.817 -99.676)" fill="#f7d857"/>
  <path id="Path_126" data-name="Path 126" d="M573.938,126.522l46.543,26.842,46.451-26.844L620.55,99.676Z" transform="translate(205.524 -99.676)" fill="#f7d857"/>
  <g id="Group_9" data-name="Group 9" transform="translate(236.226 347.473)" opacity="0.8" style="mix-blend-mode: multiply;isolation: isolate">
    <g id="Group_8" data-name="Group 8" transform="translate(0 0)" clip-path="url(#clip-path-3)">
      <path id="Path_32" data-name="Path 32" d="M533.81,692.377c3.12,5.377,43.347-12.12,89.851-39.088s81.678-53.184,78.56-58.563-43.347,12.12-89.853,39.086S530.692,687,533.81,692.377Z" transform="translate(-534.644 -585.427)" fill="url(#radial-gradient-3)" style="mix-blend-mode: multiply;isolation: isolate"/>
    </g>
  </g>
  <path id="Path_33" data-name="Path 33" d="M746.953,551.744h0l46.379,26.845h0L793.257,368.7l-46.3-26.849h0Z" transform="translate(-358.124 -167.454)"/>
  <path id="Path_129" data-name="Path 129" d="M746.953,551.744h0l46.379,26.845h0L793.257,368.7l-46.3-26.849h0Z" transform="translate(154.613 -167.454)"/>
  <path id="Path_34" data-name="Path 34" d="M811.164,578.315v0l46.614-26.845h0V341.581h0l-46.614,26.851Z" transform="translate(-376.095 -167.378)" fill="#262324"/>
  <path id="Path_127" data-name="Path 127" d="M811.164,578.315v0l46.614-26.845h0V341.581h0l-46.614,26.851Z" transform="translate(136.642 -167.378)" fill="#262324"/>
  <path id="Path_35" data-name="Path 35" d="M746.527,331.272l46.544,26.842,46.45-26.845-46.379-26.843Z" transform="translate(-358.005 -156.979)" fill="#4a4a4a"/>
  <path id="Path_128" data-name="Path 128" d="M746.527,331.272l46.544,26.842,46.45-26.845-46.379-26.843Z" transform="translate(154.732 -156.979)" fill="#4a4a4a"/>
  <g id="Group_11" data-name="Group 11" transform="translate(360.253 347.48)" opacity="0.8" style="mix-blend-mode: multiply;isolation: isolate">
    <g id="Group_10" data-name="Group 10" transform="translate(0 0)" clip-path="url(#clip-path-2)">
      <path id="Path_36" data-name="Path 36" d="M706.044,692.377c3.118,5.377,43.347-12.12,89.852-39.088s81.676-53.184,78.56-58.563-43.348,12.12-89.853,39.086S702.926,687,706.044,692.377Z" transform="translate(-706.874 -585.434)" fill="url(#radial-gradient-4)" style="mix-blend-mode: multiply;isolation: isolate"/>
    </g>
  </g>
  <text id="Gatsby_" data-name="Gatsby
" transform="translate(225.935 375.55) rotate(-91)" fill="#fff" font-size="18" font-family="Raleway-Black, Raleway" font-weight="800" letter-spacing="0.033em"><tspan x="0" y="0">GATSBY</tspan><tspan x="0" y="21"></tspan></text>
  <text id="react_" data-name="react

" transform="translate(340.935 375.597) rotate(-91)" fill="#fff" font-size="18" font-family="Raleway-Black, Raleway" font-weight="800" letter-spacing="0.033em"><tspan x="0" y="0">REACT</tspan><tspan font-size="20"><tspan x="0" y="23"></tspan><tspan x="0" y="47"></tspan></tspan></text>
  <text id="sass_" data-name="sass
" transform="translate(463.935 375.597) rotate(-91)" fill="#fff" font-size="18" font-family="Raleway-Black, Raleway" font-weight="800" letter-spacing="0.033em"><tspan x="0" y="0">SASS</tspan><tspan x="0" y="21"></tspan></text>
  <text id="html_" data-name="html
" transform="translate(592.935 373.597) rotate(-91)" fill="#fff" font-size="18" font-family="Raleway-Black, Raleway" font-weight="800" letter-spacing="0.033em"><tspan x="0" y="0">HTML</tspan><tspan x="0" y="21"></tspan></text>
  <text id="css-in-JS_" data-name="css-in-JS
" transform="translate(727.935 373.597) rotate(-91)" fill="#fff" font-size="18" font-family="Raleway-Black, Raleway" font-weight="800" letter-spacing="0.033em"><tspan x="0" y="0">CSS-IN-JS</tspan><tspan x="0" y="21"></tspan></text>
  <text id="css_" data-name="css

" transform="translate(857.935 373.597) rotate(-91)" fill="#fff" font-size="18" font-family="Raleway-Black, Raleway" font-weight="800" letter-spacing="0.033em"><tspan x="0" y="0">CSS</tspan><tspan x="0" y="21"></tspan><tspan x="0" y="42"></tspan></text>
  <text id="storybook_" data-name="storybook
" transform="translate(977.935 375.597) rotate(-91)" fill="#fff" font-size="18" font-family="Raleway-Black, Raleway" font-weight="800" letter-spacing="0.033em"><tspan x="0" y="0">STORYBOOK</tspan><tspan x="0" y="21"></tspan></text>
  <text id="redux_" data-name="redux
" transform="translate(106.935 380.954) rotate(-91)" fill="#fff" font-size="18" font-family="Raleway-Black, Raleway" font-weight="800" letter-spacing="0.033em"><tspan x="0" y="0">REDUX</tspan><tspan x="0" y="21"></tspan></text>
  <text id="cypress_" data-name="cypress
" transform="translate(1108.935 387.954) rotate(-91)" fill="#fff" font-size="18" font-family="Raleway-Black, Raleway" font-weight="800" letter-spacing="0.033em"><tspan x="0" y="0">CYPRESS</tspan><tspan x="0" y="21"></tspan></text>
</svg>
