<svg id="Component_1_1" data-name="Component 1 – 1" xmlns="http://www.w3.org/2000/svg" xmlns:xlink="http://www.w3.org/1999/xlink" width="1000" height="800" viewBox="0 0 1000 800">
  <defs>
    <radialGradient id="radial-gradient" cx="0.483" cy="0.495" r="1.301" gradientTransform="translate(0.125 0.043) scale(0.8 0.912)" gradientUnits="objectBoundingBox">
      <stop offset="0" stop-color="#fff"/>
      <stop offset="0.174" stop-color="#f0f8ff"/>
      <stop offset="0.385" stop-color="#f0f8ff"/>
      <stop offset="1" stop-color="#f0f8ff"/>
    </radialGradient>
    <clipPath id="clip-path">
      <path id="Path_117" data-name="Path 117" d="M0,0H142.3V10.275H0Z" transform="translate(0 71.759) rotate(-30.103)" fill="none"/>
    </clipPath>
    <radialGradient id="radial-gradient-2" cx="0.5" cy="0.5" r="0.978" gradientTransform="matrix(-0.51, 0.502, -0.034, -0.1, 6.661, 169.461)" gradientUnits="objectBoundingBox">
      <stop offset="0" stop-color="#666"/>
      <stop offset="0.254" stop-color="#838383" stop-opacity="0.788"/>
      <stop offset="0.778" stop-color="#cfcfcf" stop-opacity="0.247"/>
      <stop offset="1" stop-color="#f2f2f2" stop-opacity="0"/>
    </radialGradient>
    <clipPath id="clip-path-2">
      <path id="Path_118" data-name="Path 118" d="M0,0H142.3V10.275H0Z" transform="translate(0 71.753) rotate(-30.1)" fill="none"/>
    </clipPath>
    <radialGradient id="radial-gradient-3" cx="0.5" cy="0.5" r="0.978" gradientTransform="matrix(-0.51, 0.502, -0.034, -0.1, 4.547, 164.531)" xlink:href="#radial-gradient-2"/>
    <clipPath id="clip-path-3">
      <path id="Path_119" data-name="Path 119" d="M0,0H142.3V10.275H0Z" transform="matrix(0.865, -0.502, 0.502, 0.865, 0, 71.764)" fill="none"/>
    </clipPath>
    <radialGradient id="radial-gradient-4" cx="0.5" cy="0.5" r="0.978" gradientTransform="matrix(-0.51, 0.502, -0.034, -0.1, 2.367, 159.449)" xlink:href="#radial-gradient-2"/>
    <radialGradient id="radial-gradient-5" cx="0.5" cy="0.5" r="0.978" gradientTransform="matrix(-0.51, 0.502, -0.034, -0.1, 0.112, 154.193)" xlink:href="#radial-gradient-2"/>
  </defs>
  <path id="Path_113" data-name="Path 113" d="M1000,0V800H0Z" fill="url(#radial-gradient)"/>
  <path id="Path_1" data-name="Path 1" d="M245.982,570.421h0l36.183,20.942h0l-.06-80.629-36.123-20.947h0Z" transform="translate(-103.858 135.938)" fill="#ff3939"/>
  <path id="Path_2" data-name="Path 2" d="M310.194,591.089v0l36.365-20.942h0V489.516h0l-36.365,20.948Z" transform="translate(-131.997 136.057)" fill="#ce2e2e"/>
  <path id="Path_3" data-name="Path 3" d="M245.557,473.3l36.31,20.94L318.1,473.3l-36.182-20.941Z" transform="translate(-103.672 152.338)" fill="#fc5959"/>
  <g id="Group_2" data-name="Group 2" transform="translate(120.229 677.249)" opacity="0.8" style="mix-blend-mode: multiply;isolation: isolate">
    <g id="Group_1" data-name="Group 1" transform="translate(0)" clip-path="url(#clip-path)">
      <path id="Path_4" data-name="Path 4" d="M205.738,670.692c2.433,4.195,33.817-9.455,70.1-30.494s63.719-41.491,61.286-45.687S303.3,603.968,267.024,625,203.305,666.5,205.738,670.692Z" transform="translate(-206.387 -586.871)" fill="url(#radial-gradient-2)" style="mix-blend-mode: multiply;isolation: isolate"/>
    </g>
  </g>
  <path id="Path_25" data-name="Path 25" d="M408.2,473.395h0l36.182,20.942h0l-.06-205.019L408.2,268.371h0Z" transform="translate(-174.945 232.964)" fill="#1f998a"/>
  <path id="Path_122" data-name="Path 122" d="M408.2,473.395h0l36.182,20.942h0l-.06-205.019L408.2,268.371h0Z" transform="translate(220.055 232.964)" fill="#1f998a"/>
  <path id="Path_26" data-name="Path 26" d="M472.415,494.063v0l36.365-20.942h0V268.1h0l-36.365,20.947Z" transform="translate(-203.083 233.082)" fill="#30d8c8"/>
  <path id="Path_121" data-name="Path 121" d="M472.415,494.063v0l36.365-20.942h0V268.1h0l-36.365,20.947Z" transform="translate(191.917 233.082)" fill="#30d8c8"/>
  <path id="Path_27" data-name="Path 27" d="M407.778,251.889l36.31,20.94,36.238-20.942-36.183-20.941Z" transform="translate(-174.759 249.364)" fill="#63fce9"/>
  <path id="Path_123" data-name="Path 123" d="M407.778,251.889l36.31,20.94,36.238-20.942-36.183-20.941Z" transform="translate(220.241 249.364)" fill="#63fce9"/>
  <g id="Group_7" data-name="Group 7" transform="translate(210.965 677.252)" opacity="0.8" style="mix-blend-mode: multiply;isolation: isolate">
    <g id="Group_6" data-name="Group 6" transform="translate(0)" clip-path="url(#clip-path-2)">
      <path id="Path_28" data-name="Path 28" d="M367.252,670.692c2.433,4.195,33.816-9.455,70.1-30.494s63.718-41.491,61.287-45.687-33.817,9.456-70.1,30.492S364.819,666.5,367.252,670.692Z" transform="translate(-367.899 -586.874)" fill="url(#radial-gradient-3)" style="mix-blend-mode: multiply;isolation: isolate"/>
    </g>
  </g>
  <path id="Path_29" data-name="Path 29" d="M574.361,415.872h0l36.183,20.942h0l-.059-278.766L574.361,137.1h0Z" transform="translate(-247.757 290.487)" fill="#cc7825"/>
  <path id="Path_115" data-name="Path 115" d="M574.361,415.872h0l36.183,20.942h0l-.059-278.766L574.361,137.1h0Z" transform="translate(-52.814 290.487)" fill="#cc7825"/>
  <path id="Path_125" data-name="Path 125" d="M574.361,415.872h0l36.183,20.942h0l-.059-278.766L574.361,137.1h0Z" transform="translate(154.186 290.487)" fill="#cc7825"/>
  <path id="Path_30" data-name="Path 30" d="M638.574,436.54v0L674.938,415.6h0V136.83h0l-36.364,20.947Z" transform="translate(-275.895 290.606)" fill="#fcb042"/>
  <path id="Path_114" data-name="Path 114" d="M638.574,436.54v0L674.938,415.6h0V136.83h0l-36.364,20.947Z" transform="translate(-80.953 290.606)" fill="#fcb042"/>
  <path id="Path_124" data-name="Path 124" d="M638.574,436.54v0L674.938,415.6h0V136.83h0l-36.364,20.947Z" transform="translate(126.047 290.606)" fill="#fcb042"/>
  <path id="Path_31" data-name="Path 31" d="M573.938,120.619l36.309,20.94,36.238-20.942L610.3,99.676Z" transform="translate(-247.571 306.887)" fill="#f7d857"/>
  <path id="Path_116" data-name="Path 116" d="M573.938,120.619l36.309,20.94,36.238-20.942L610.3,99.676Z" transform="translate(-52.629 306.887)" fill="#f7d857"/>
  <path id="Path_126" data-name="Path 126" d="M573.938,120.619l36.309,20.94,36.238-20.942L610.3,99.676Z" transform="translate(154.371 306.887)" fill="#f7d857"/>
  <g id="Group_9" data-name="Group 9" transform="translate(304.515 677.247)" opacity="0.8" style="mix-blend-mode: multiply;isolation: isolate">
    <g id="Group_8" data-name="Group 8" transform="translate(0)" clip-path="url(#clip-path-3)">
      <path id="Path_32" data-name="Path 32" d="M533.768,670.692c2.434,4.195,33.816-9.455,70.1-30.494s63.72-41.491,61.287-45.687-33.816,9.456-70.1,30.492S531.335,666.5,533.768,670.692Z" transform="translate(-534.418 -586.868)" fill="url(#radial-gradient-4)" style="mix-blend-mode: multiply;isolation: isolate"/>
    </g>
  </g>
  <path id="Path_33" data-name="Path 33" d="M746.953,505.595h0l36.182,20.942h0L783.076,362.8l-36.123-20.946h0Z" transform="translate(-323.388 200.764)" fill="#a30a32"/>
  <path id="Path_129" data-name="Path 129" d="M746.953,505.595h0l36.182,20.942h0L783.076,362.8l-36.123-20.946h0Z" transform="translate(76.612 200.764)" fill="#a30a32"/>
  <path id="Path_34" data-name="Path 34" d="M811.164,526.263v0l36.365-20.942h0V341.581h0l-36.365,20.947Z" transform="translate(-351.525 200.882)" fill="#ea1347"/>
  <path id="Path_127" data-name="Path 127" d="M811.164,526.263v0l36.365-20.942h0V341.581h0l-36.365,20.947Z" transform="translate(48.475 200.882)" fill="#ea1347"/>
  <path id="Path_35" data-name="Path 35" d="M746.527,325.37l36.31,20.941,36.237-20.943-36.182-20.941Z" transform="translate(-323.201 217.164)" fill="#ff3e5f"/>
  <path id="Path_128" data-name="Path 128" d="M746.527,325.37l36.31,20.941,36.237-20.943-36.182-20.941Z" transform="translate(76.799 217.164)" fill="#ff3e5f"/>
  <g id="Group_11" data-name="Group 11" transform="translate(401.272 677.252)" opacity="0.8" style="mix-blend-mode: multiply;isolation: isolate">
    <g id="Group_10" data-name="Group 10" transform="translate(0)" clip-path="url(#clip-path-2)">
      <path id="Path_36" data-name="Path 36" d="M706,670.692c2.433,4.195,33.816-9.455,70.1-30.494s63.718-41.491,61.287-45.687-33.817,9.456-70.1,30.492S703.569,666.5,706,670.692Z" transform="translate(-706.649 -586.874)" fill="url(#radial-gradient-5)" style="mix-blend-mode: multiply;isolation: isolate"/>
    </g>
  </g>
  <text id="redux_" data-name="redux
" transform="translate(116 732)" fill="#ff3939" font-size="14" font-family="Raleway-Black, Raleway" font-weight="800" letter-spacing="0.033em"><tspan x="0" y="0">Redux</tspan><tspan x="0" y="16"></tspan></text>
  <text id="Gatsby" transform="translate(201 732)" fill="#30d8c8" font-size="14" font-family="Raleway-Black, Raleway" font-weight="800" letter-spacing="0.033em"><tspan x="0" y="0">Gatsby</tspan></text>
  <text id="CSS_" data-name="CSS
" transform="translate(596 732)" fill="#30d8c8" font-size="14" font-family="Raleway-Black, Raleway" font-weight="800" letter-spacing="0.033em"><tspan x="0" y="0">CSS</tspan><tspan x="0" y="16"></tspan></text>
  <text id="react" transform="translate(301 732)" fill="#fcb042" font-size="14" font-family="Raleway-Black, Raleway" font-weight="800" letter-spacing="0.033em"><tspan x="0" y="0">React</tspan></text>
  <text id="HTML" transform="translate(496 732)" fill="#fcb042" font-size="14" font-family="Raleway-Black, Raleway" font-weight="800" letter-spacing="0.033em"><tspan x="0" y="0">HTML</tspan></text>
  <text id="CSS-in-JS" transform="translate(683 732)" fill="#fcb042" font-size="14" font-family="Raleway-Black, Raleway" font-weight="800" letter-spacing="0.033em"><tspan x="0" y="0">CSS-In-JS</tspan></text>
  <text id="SASS" transform="translate(405 732)" fill="#ea1347" font-size="14" font-family="Raleway-Black, Raleway" font-weight="800" letter-spacing="0.033em"><tspan x="0" y="0">SASS</tspan></text>
  <text id="Cypress" transform="translate(784 732)" fill="#ea1347" font-size="14" font-family="Raleway-Black, Raleway" font-weight="800" letter-spacing="0.033em"><tspan x="0" y="0">Cypress</tspan></text>
</svg>
