<svg xmlns="http://www.w3.org/2000/svg" xmlns:xlink="http://www.w3.org/1999/xlink" width="220" height="261.715" viewBox="0 0 220 261.715">
  <defs>
    <radialGradient id="radial-gradient" cx="0.5" cy="0.5" r="1.795" gradientTransform="matrix(1, -0.025, 0.029, 1.144, -0.014, -0.059)" gradientUnits="objectBoundingBox">
      <stop offset="0"/>
      <stop offset="1" stop-color="#060606"/>
    </radialGradient>
    <linearGradient id="linear-gradient" x1="0.5" x2="0.5" y2="1" gradientUnits="objectBoundingBox">
      <stop offset="0" stop-color="#f90"/>
      <stop offset="1" stop-color="#ff9100"/>
    </linearGradient>
    <filter id="Polygon_3" x="53.677" y="128.323" width="113" height="133.393" filterUnits="userSpaceOnUse">
      <feOffset dy="8" input="SourceAlpha"/>
      <feGaussianBlur stdDeviation="3" result="blur"/>
      <feFlood flood-opacity="0.161"/>
      <feComposite operator="in" in2="blur"/>
      <feComposite in="SourceGraphic"/>
    </filter>
  </defs>
  <g id="Component_3_1" data-name="Component 3 – 1" transform="translate(0)">
    <g id="Group_1" data-name="Group 1" transform="translate(0 0)">
      <path id="Subtraction_1" data-name="Subtraction 1" d="M110,220a110.814,110.814,0,0,1-22.169-2.235A109.4,109.4,0,0,1,48.5,201.214a110.319,110.319,0,0,1-39.854-48.4,109.438,109.438,0,0,1-6.41-20.648,111.07,111.07,0,0,1,0-44.338A109.4,109.4,0,0,1,18.786,48.5a110.321,110.321,0,0,1,48.4-39.854,109.441,109.441,0,0,1,20.648-6.41A110.81,110.81,0,0,1,110,0,110.137,110.137,0,0,1,211.038,66.44L104,110.5l106.667,43.908A110.027,110.027,0,0,1,110,220Z" transform="translate(220) rotate(90)" fill="url(#radial-gradient)"/>
      <g transform="matrix(1, 0, 0, 1, 0, 0)" filter="url(#Polygon_3)">
        <path id="Polygon_3-2" data-name="Polygon 3" d="M47.5,0,95,115.393H0Z" transform="translate(62.68 129.32)" fill="url(#linear-gradient)"/>
      </g>
    </g>
  </g>
</svg>
